# xmcd
#
# Track frame offsets:
#	150
#	14900
#	27117
#	39895
#	55582
#	72130
#	87362
#	101255
#	115965
#	136670
#	151662
#	167390
#	184925
#	195682
#	213325
#	227650
#	237390
#	251477
#	264390
#	277110
#	293015
#	304440
#
# Disc length: 4211 seconds
# Revision: 2
# Processed by: cddbd v1.5.2PL0 Copyright (c) Steve Scherf et al.
# Submitted via: dBpowerAMP V12.0
#
DISCID=29107116
DTITLE=Various Artist - Mirrors Of Life, Vol. 2
DYEAR=2000
DGENRE=Country
TTITLE0=Randy Travis - Stranger In My Mirror
TTITLE1=George Strait - All Of Me (Loves All Of You)
TTITLE2=Garth Brooks - Papa Loved Mama
TTITLE3=David Kersh - Goodnight Sweetheart
TTITLE4=Clay Walker - Down By The Riverside
TTITLE5=Doug Stone - Remember The Ride
TTITLE6=Mindy McCready - It Ain't A Party
TTITLE7=Garth Brooks - Cowboys And Angels
TTITLE8=Ty Herndon - Tears In God's Eyes
TTITLE9=George Strait - I've Convinced Everybody But Me
TTITLE10=Rascal Flatts - While You Loved Me
TTITLE11=Jo-El Sonnier - Cajun Blood
TTITLE12=Julie Reeves - Trouble Is A Woman
TTITLE13=Garth Brooks - Cold Shoulder
TTITLE14=Clay Walker - A Cowboys Toughest Ride
TTITLE15=Daryle Singletary - Redneckin'
TTITLE16=Thrasher Shiver - Between The Stones And Jones
TTITLE17=Pearl River - Hello Goodbye
TTITLE18=Chris LeDoux - Slow Down
TTITLE19=Jerry Kilgore - Don't Tell Me You're Not In Love
TTITLE20=Chely Wright - Heart Shaped World
TTITLE21=Mark Chesnutt - My Heart's Too Broke
EXTD=
EXTT0=
EXTT1=
EXTT2=
EXTT3=
EXTT4=
EXTT5=
EXTT6=
EXTT7=
EXTT8=
EXTT9=
EXTT10=
EXTT11=
EXTT12=
EXTT13=
EXTT14=
EXTT15=
EXTT16=
EXTT17=
EXTT18=
EXTT19=
EXTT20=
EXTT21=
PLAYORDER=
